<svg width="36.562012" height="36.561798" viewBox="0 0 36.562 36.5618" fill="none" xmlns="http://www.w3.org/2000/svg" xmlns:xlink="http://www.w3.org/1999/xlink">
	<desc>
			Created with Pixso.
	</desc>
	<defs>
		<clipPath id="clip86_1748">
			<rect id="инстаграмм" rx="0.000000" width="36.418968" height="36.418968" transform="translate(0.071410 0.071410)" fill="white" fill-opacity="0"/>
		</clipPath>
		<radialGradient gradientTransform="translate(9.7127 39.3778) rotate(-90) scale(36.2354 33.7018)" cx="0.000000" cy="0.000000" r="1.000000" id="paint_radial_86_1750_0" gradientUnits="userSpaceOnUse">
			<stop stop-color="#FFDD55"/>
			<stop offset="0.100000" stop-color="#FFDD55"/>
			<stop offset="0.500000" stop-color="#FF543E"/>
			<stop offset="1.000000" stop-color="#C837AB"/>
		</radialGradient>
		<radialGradient gradientTransform="translate(-6.12324 2.6338) rotate(78.681) scale(16.1974 66.7664)" cx="0.000000" cy="0.000000" r="1.000000" id="paint_radial_86_1751_0" gradientUnits="userSpaceOnUse">
			<stop stop-color="#3771C8"/>
			<stop offset="0.128000" stop-color="#3771C8"/>
			<stop offset="1.000000" stop-color="#6600FF" stop-opacity="0.000000"/>
		</radialGradient>
	</defs>
	<rect id="инстаграмм" rx="0.000000" width="36.418968" height="36.418968" transform="translate(0.071410 0.071410)" fill="#FFFFFF" fill-opacity="0"/>
	<g clip-path="url(#clip86_1748)">
		<path id="Vector" d="M8.57 6.1e-5L27.99 6.1e-5C32.72 6.1e-5 36.56 3.83 36.56 8.56L36.56 27.99C36.56 32.72 32.72 36.56 27.99 36.56L8.57 36.56C3.83 36.56 0 32.72 0 27.99L0 8.56C0 3.83 3.83 6.1e-5 8.57 6.1e-5Z" fill="url(#paint_radial_86_1750_0)" fill-opacity="1.000000" fill-rule="evenodd"/>
		<path id="Vector" d="M8.57 6.1e-5L27.99 6.1e-5C32.72 6.1e-5 36.56 3.83 36.56 8.56L36.56 27.99C36.56 32.72 32.72 36.56 27.99 36.56L8.57 36.56C3.83 36.56 0 32.72 0 27.99L0 8.56C0 3.83 3.83 6.1e-5 8.57 6.1e-5Z" fill="url(#paint_radial_86_1751_0)" fill-opacity="1.000000" fill-rule="evenodd"/>
		<path id="Vector" d="M18.28 3.99C14.4 3.99 13.91 4.01 12.39 4.08C10.87 4.15 9.83 4.39 8.92 4.74C7.98 5.11 7.19 5.6 6.39 6.39C5.6 7.18 5.11 7.98 4.74 8.92C4.39 9.83 4.15 10.87 4.08 12.39C4.01 13.91 4 14.4 4 18.28C4 22.15 4.01 22.64 4.08 24.16C4.15 25.68 4.39 26.72 4.75 27.63C5.11 28.57 5.6 29.37 6.39 30.16C7.19 30.95 7.98 31.44 8.92 31.81C9.83 32.16 10.87 32.4 12.39 32.47C13.91 32.54 14.4 32.56 18.28 32.56C22.16 32.56 22.64 32.54 24.16 32.47C25.68 32.4 26.72 32.16 27.63 31.81C28.57 31.44 29.37 30.95 30.16 30.16C30.96 29.37 31.44 28.57 31.81 27.63C32.16 26.72 32.4 25.68 32.47 24.16C32.54 22.64 32.56 22.15 32.56 18.28C32.56 14.4 32.54 13.91 32.47 12.39C32.4 10.87 32.16 9.83 31.81 8.92C31.44 7.98 30.96 7.18 30.16 6.39C29.37 5.6 28.57 5.11 27.63 4.74C26.72 4.39 25.68 4.15 24.16 4.08C22.64 4.01 22.15 3.99 18.27 3.99L18.28 3.99ZM17 6.57C17.38 6.57 17.8 6.57 18.28 6.57C22.09 6.57 22.54 6.58 24.05 6.65C25.44 6.71 26.2 6.95 26.7 7.14C27.37 7.4 27.84 7.71 28.34 8.21C28.84 8.71 29.15 9.19 29.41 9.85C29.61 10.36 29.84 11.11 29.9 12.5C29.97 14.01 29.99 14.46 29.99 18.27C29.99 22.08 29.97 22.54 29.9 24.04C29.84 25.43 29.61 26.19 29.41 26.69C29.15 27.36 28.84 27.83 28.34 28.33C27.84 28.83 27.37 29.14 26.7 29.4C26.2 29.6 25.44 29.83 24.05 29.89C22.54 29.96 22.09 29.98 18.28 29.98C14.46 29.98 14.01 29.96 12.51 29.89C11.11 29.83 10.36 29.6 9.85 29.4C9.19 29.14 8.71 28.83 8.21 28.33C7.71 27.83 7.4 27.36 7.14 26.69C6.95 26.19 6.72 25.43 6.65 24.04C6.58 22.54 6.57 22.08 6.57 18.27C6.57 14.46 6.58 14.01 6.65 12.5C6.72 11.11 6.95 10.35 7.14 9.85C7.4 9.18 7.71 8.71 8.21 8.21C8.71 7.71 9.19 7.4 9.86 7.14C10.36 6.94 11.11 6.71 12.51 6.64C13.82 6.59 14.34 6.57 17 6.56L17 6.57ZM25.9 8.94C24.96 8.94 24.19 9.71 24.19 10.65C24.19 11.6 24.96 12.37 25.9 12.37C26.85 12.37 27.62 11.6 27.62 10.65C27.62 9.71 26.85 8.94 25.9 8.94L25.9 8.94ZM18.28 10.94C14.23 10.94 10.94 14.23 10.94 18.28C10.94 22.33 14.23 25.61 18.28 25.61C22.33 25.61 25.61 22.33 25.61 18.28C25.61 14.23 22.33 10.94 18.28 10.94L18.28 10.94ZM18.28 13.52C20.91 13.52 23.04 15.65 23.04 18.28C23.04 20.91 20.91 23.04 18.28 23.04C15.65 23.04 13.52 20.91 13.52 18.28C13.52 15.65 15.65 13.52 18.28 13.52Z" fill="#FFFFFF" fill-opacity="1.000000" fill-rule="nonzero"/>
	</g>
</svg>
