<svg width="34.267090" height="33.377167" viewBox="0 0 34.2671 33.3772" fill="none" xmlns="http://www.w3.org/2000/svg" xmlns:xlink="http://www.w3.org/1999/xlink">
	<desc>
			Created with Pixso.
	</desc>
	<defs>
		<clipPath id="clip60_1039">
			<rect id="галочка" rx="16.299179" width="33.488415" height="32.598358" transform="translate(0.389400 0.389400)" fill="white" fill-opacity="0"/>
		</clipPath>
	</defs>
	<rect id="галочка" rx="16.299179" width="33.488415" height="32.598358" transform="translate(0.389400 0.389400)" fill="#FF0000" fill-opacity="1.000000"/>
	<g clip-path="url(#clip60_1039)">
		<path id="Vector" d="M24.56 11.32C24.78 11.54 24.91 11.83 24.91 12.14C24.91 12.45 24.78 12.75 24.56 12.97L15.81 21.73C15.69 21.84 15.55 21.93 15.4 22C15.25 22.06 15.09 22.09 14.93 22.09C14.76 22.09 14.6 22.06 14.45 22C14.3 21.93 14.16 21.84 14.05 21.73L9.69 17.38C9.58 17.27 9.49 17.14 9.43 17C9.37 16.86 9.34 16.7 9.34 16.55C9.34 16.39 9.37 16.24 9.43 16.09C9.48 15.95 9.57 15.82 9.68 15.71C9.79 15.6 9.92 15.51 10.06 15.46C10.21 15.4 10.36 15.37 10.52 15.37C10.67 15.37 10.83 15.4 10.97 15.46C11.11 15.52 11.24 15.61 11.35 15.72L14.93 19.3L22.91 11.32C23.02 11.21 23.15 11.12 23.29 11.06C23.43 11.01 23.58 10.98 23.74 10.98C23.89 10.98 24.04 11.01 24.18 11.06C24.33 11.12 24.46 11.21 24.56 11.32Z" fill="#FFFFFF" fill-opacity="1.000000" fill-rule="evenodd"/>
	</g>
</svg>
