<svg width="37.317383" height="37.317627" viewBox="0 0 37.3174 37.3176" fill="none" xmlns="http://www.w3.org/2000/svg" xmlns:xlink="http://www.w3.org/1999/xlink">
	<desc>
			Created with Pixso.
	</desc>
	<defs>
		<clipPath id="clip60_1129">
			<rect id="streamline:investment-selection" rx="0.000000" width="34.652054" height="34.652054" transform="translate(1.332771 1.332771)" fill="white" fill-opacity="0"/>
		</clipPath>
	</defs>
	<rect id="streamline:investment-selection" rx="0.000000" width="34.652054" height="34.652054" transform="translate(1.332771 1.332771)" fill="#FFFFFF" fill-opacity="0"/>
	<g clip-path="url(#clip60_1129)">
		<path id="Vector" d="M16.89 9.86C16.71 9.34 16.37 8.89 15.92 8.57C15.47 8.25 14.93 8.08 14.38 8.08L12.31 8.08C11.72 8.08 11.16 8.3 10.72 8.69C10.29 9.08 10.01 9.62 9.95 10.2C9.89 10.79 10.04 11.37 10.38 11.85C10.73 12.32 11.23 12.66 11.8 12.78L14.94 13.47C15.59 13.61 16.15 13.98 16.54 14.52C16.92 15.05 17.1 15.71 17.03 16.36C16.95 17.01 16.64 17.62 16.16 18.06C15.67 18.5 15.03 18.74 14.37 18.74L12.6 18.74C12.04 18.74 11.51 18.57 11.06 18.25C10.61 17.93 10.27 17.48 10.08 16.96M13.49 8.08L13.49 5.41M13.49 21.4L13.49 18.74M18.57 35.98L18.57 21.98C18.57 21.1 18.92 20.25 19.55 19.63C20.17 19 21.02 18.65 21.9 18.65C22.79 18.65 23.64 19 24.26 19.63C24.88 20.25 25.24 21.1 25.24 21.98L25.24 29.31L30.57 29.31C31.98 29.31 33.34 29.88 34.34 30.87C35.34 31.87 35.9 33.23 35.9 34.64L35.9 35.98" stroke="#FFFFFF" stroke-opacity="1.000000" stroke-width="1.587983" stroke-linejoin="round" stroke-linecap="round"/>
		<path id="Vector" d="M13.49 25.49C11.03 25.49 8.63 24.74 6.61 23.34C4.59 21.93 3.04 19.95 2.18 17.65C1.32 15.34 1.18 12.83 1.78 10.45C2.39 8.06 3.7 5.92 5.56 4.3C7.41 2.69 9.72 1.68 12.16 1.41C14.6 1.14 17.07 1.62 19.24 2.79C21.4 3.96 23.16 5.76 24.27 7.95C25.38 10.15 25.79 12.63 25.46 15.06" stroke="#FFFFFF" stroke-opacity="1.000000" stroke-width="1.587983" stroke-linecap="round"/>
	</g>
</svg>
