<svg width="35.729492" height="35.729614" viewBox="0 0 35.7295 35.7296" fill="none" xmlns="http://www.w3.org/2000/svg" xmlns:xlink="http://www.w3.org/1999/xlink">
	<desc>
			Created with Pixso.
	</desc>
	<defs>
		<clipPath id="clip60_1122">
			<rect id="ph:handshake-light" rx="0.000000" width="35.590046" height="35.590046" transform="translate(0.069784 0.069784)" fill="white" fill-opacity="0"/>
		</clipPath>
	</defs>
	<rect id="ph:handshake-light" rx="0.000000" width="35.590046" height="35.590046" transform="translate(0.069784 0.069784)" fill="#FFFFFF" fill-opacity="0"/>
	<g clip-path="url(#clip60_1122)">
		<path id="Vector" d="M35.24 15.18L31.68 8.06C31.56 7.83 31.4 7.62 31.21 7.45C31.02 7.28 30.79 7.16 30.55 7.07C30.3 6.99 30.05 6.96 29.79 6.98C29.54 7 29.29 7.07 29.06 7.18L25.49 8.96L18.07 7C17.93 6.97 17.79 6.97 17.65 7L10.23 8.96L6.66 7.18C6.43 7.07 6.18 7 5.93 6.98C5.67 6.96 5.42 6.99 5.17 7.07C4.93 7.16 4.7 7.28 4.51 7.45C4.32 7.62 4.16 7.83 4.04 8.06L0.48 15.18C0.25 15.64 0.21 16.18 0.38 16.67C0.54 17.16 0.89 17.57 1.36 17.8L5.14 19.7L12.91 25.24C12.99 25.3 13.08 25.35 13.18 25.37L22.12 27.6C22.19 27.62 22.26 27.63 22.33 27.63C22.55 27.63 22.76 27.54 22.92 27.38L30.64 19.66L34.36 17.8C34.83 17.57 35.18 17.16 35.34 16.67C35.51 16.18 35.47 15.64 35.24 15.18ZM27.84 20.09L22.84 16.08C22.68 15.96 22.48 15.89 22.27 15.9C22.07 15.91 21.87 16 21.73 16.15C19.12 18.77 16.21 18.44 14.36 17.25C14.32 17.23 14.29 17.2 14.27 17.16C14.25 17.13 14.23 17.09 14.23 17.04C14.22 17 14.23 16.96 14.24 16.93C14.25 16.89 14.27 16.86 14.3 16.83L20.43 10.88L25.16 10.88L29.12 18.81L27.84 20.09ZM1.96 16.14C1.94 16.07 1.95 16 1.98 15.93L5.54 8.8C5.56 8.76 5.6 8.72 5.64 8.69C5.69 8.66 5.74 8.65 5.79 8.65C5.84 8.65 5.88 8.66 5.92 8.68L9.02 10.23L5.2 17.86L2.1 16.31C2.07 16.29 2.04 16.27 2.02 16.24C1.99 16.21 1.97 16.18 1.96 16.14ZM22.07 25.87L13.75 23.79L6.65 18.71L10.72 10.57L17.86 8.68L19.92 9.22C19.77 9.26 19.62 9.33 19.51 9.44L13.13 15.63C12.92 15.84 12.76 16.09 12.67 16.37C12.57 16.64 12.53 16.94 12.57 17.23C12.6 17.52 12.7 17.8 12.85 18.05C13.01 18.3 13.21 18.51 13.46 18.67C16.28 20.47 19.71 20.13 22.37 17.84L26.65 21.28L22.07 25.87ZM33.75 16.14C33.74 16.18 33.73 16.21 33.7 16.24C33.68 16.26 33.65 16.29 33.62 16.3L30.52 17.86L26.7 10.23L29.8 8.68C29.83 8.66 29.87 8.65 29.91 8.65C29.94 8.65 29.98 8.65 30.02 8.66C30.05 8.68 30.08 8.69 30.11 8.72C30.14 8.74 30.16 8.77 30.18 8.8L33.74 15.93C33.77 16 33.78 16.07 33.75 16.14ZM18.12 30.34C18.07 30.56 17.93 30.74 17.74 30.86C17.55 30.97 17.32 31.01 17.11 30.95L11.28 29.5C11.18 29.47 11.09 29.43 11 29.37L7.32 26.74C7.14 26.61 7.02 26.42 6.99 26.2C6.95 25.98 7 25.75 7.13 25.57C7.26 25.39 7.46 25.27 7.68 25.23C7.9 25.2 8.12 25.25 8.3 25.38L11.85 27.91L17.51 29.33C17.62 29.35 17.72 29.4 17.81 29.47C17.9 29.53 17.97 29.61 18.03 29.71C18.09 29.8 18.12 29.91 18.14 30.02C18.15 30.13 18.15 30.24 18.12 30.34L18.12 30.34Z" fill="#FFFFFF" fill-opacity="1.000000" fill-rule="nonzero"/>
	</g>
</svg>
