<svg width="30.171875" height="30.171692" viewBox="0 0 30.1719 30.1717" fill="none" xmlns="http://www.w3.org/2000/svg" xmlns:xlink="http://www.w3.org/1999/xlink">
	<desc>
			Created with Pixso.
	</desc>
	<defs>
		<clipPath id="clip60_1138">
			<rect id="fluent:person-support-32-regular" rx="0.000000" width="29.228809" height="29.228809" transform="translate(0.471432 0.471432)" fill="white" fill-opacity="0"/>
		</clipPath>
	</defs>
	<rect id="fluent:person-support-32-regular" rx="0.000000" width="29.228809" height="29.228809" transform="translate(0.471432 0.471432)" fill="#FFFFFF" fill-opacity="0"/>
	<g clip-path="url(#clip60_1138)">
		<path id="Vector" d="M8.48 10.37C8.48 8.62 9.18 6.94 10.41 5.7C11.65 4.46 13.33 3.77 15.08 3.77C16.83 3.77 18.51 4.46 19.75 5.7C20.99 6.94 21.68 8.62 21.68 10.37C21.68 10.62 21.78 10.86 21.96 11.03C22.13 11.21 22.37 11.31 22.62 11.31C22.87 11.31 23.11 11.21 23.29 11.03C23.47 10.86 23.57 10.62 23.57 10.37C23.57 8.92 23.2 7.5 22.49 6.23C21.79 4.97 20.77 3.91 19.54 3.15C18.31 2.39 16.9 1.95 15.46 1.89C14.01 1.83 12.57 2.13 11.28 2.78C9.98 3.43 8.88 4.4 8.06 5.6C7.25 6.79 6.76 8.18 6.63 9.62C6.5 11.06 6.74 12.51 7.33 13.83C7.92 15.15 8.84 16.3 10 17.17C11 17.91 12.14 18.42 13.36 18.68C13.53 19.06 13.82 19.37 14.18 19.57C14.54 19.76 14.96 19.84 15.37 19.77C15.78 19.71 16.16 19.51 16.45 19.21C16.73 18.91 16.91 18.52 16.95 18.11C17 17.7 16.91 17.28 16.69 16.93C16.48 16.58 16.15 16.3 15.76 16.15C15.38 16 14.95 15.98 14.55 16.1C14.16 16.21 13.81 16.46 13.56 16.79C12.11 16.45 10.83 15.63 9.9 14.46C8.98 13.3 8.48 11.85 8.48 10.37ZM9.42 10.37C9.42 9.33 9.71 8.31 10.25 7.42C10.8 6.53 11.57 5.81 12.5 5.33C13.43 4.86 14.47 4.65 15.5 4.73C16.54 4.81 17.54 5.17 18.38 5.78C19.23 6.38 19.89 7.21 20.29 8.17C20.7 9.13 20.83 10.18 20.67 11.21C20.52 12.24 20.08 13.21 19.41 14C18.75 14.8 17.87 15.4 16.88 15.73C16.38 15.31 15.74 15.08 15.08 15.08C14.39 15.08 13.77 15.33 13.28 15.73C12.15 15.35 11.18 14.63 10.49 13.67C9.79 12.71 9.42 11.55 9.42 10.37ZM15.08 6.6C14.08 6.6 13.12 6.99 12.41 7.7C11.71 8.41 11.31 9.37 11.31 10.37C11.31 11.37 11.71 12.33 12.41 13.03C13.12 13.74 14.08 14.14 15.08 14.14C16.08 14.14 17.04 13.74 17.75 13.03C18.45 12.33 18.85 11.37 18.85 10.37C18.85 9.37 18.45 8.41 17.75 7.7C17.04 6.99 16.08 6.6 15.08 6.6ZM7.07 16.97L8.35 16.97C9.11 17.74 9.99 18.38 10.97 18.85L7.07 18.85C6.69 18.85 6.33 19 6.07 19.27C5.8 19.53 5.65 19.89 5.65 20.27L5.65 20.74C5.65 22.13 6.54 23.52 8.25 24.61C9.96 25.69 12.37 26.4 15.08 26.4C17.79 26.4 20.2 25.69 21.91 24.61C23.62 23.52 24.51 22.13 24.51 20.74L24.51 20.27C24.51 19.89 24.36 19.53 24.09 19.27C23.83 19 23.47 18.85 23.09 18.85L17.75 18.85C17.96 18.24 17.96 17.58 17.75 16.97L23.09 16.97C23.97 16.97 24.81 17.31 25.43 17.93C26.05 18.55 26.39 19.39 26.39 20.27L26.39 20.74C26.39 22.99 24.96 24.9 22.92 26.2C20.87 27.51 18.1 28.28 15.08 28.28C12.07 28.28 9.29 27.51 7.24 26.2C5.2 24.9 3.77 22.99 3.77 20.74L3.77 20.27C3.77 19.39 4.11 18.55 4.73 17.93C5.35 17.31 6.19 16.97 7.07 16.97Z" fill="#FFFFFF" fill-opacity="1.000000" fill-rule="nonzero"/>
	</g>
</svg>
