<svg width="37.352051" height="37.351929" viewBox="0 0 37.3521 37.3519" fill="none" xmlns="http://www.w3.org/2000/svg" xmlns:xlink="http://www.w3.org/1999/xlink">
	<desc>
			Created with Pixso.
	</desc>
	<defs>
		<clipPath id="clip60_1020">
			<rect id="телеграм" rx="0.000000" width="37.205990" height="37.206017" transform="translate(0.072953 0.072953)" fill="white" fill-opacity="0"/>
		</clipPath>
		<linearGradient x1="1867.595093" y1="0.000000" x2="1867.595093" y2="3735.192139" id="paint_linear_60_1021_0" gradientUnits="userSpaceOnUse">
			<stop stop-color="#2AABEE"/>
			<stop offset="1.000000" stop-color="#229ED9"/>
		</linearGradient>
	</defs>
	<rect id="телеграм" rx="0.000000" width="37.205990" height="37.206017" transform="translate(0.072953 0.072953)" fill="#FFFFFF" fill-opacity="0"/>
	<g clip-path="url(#clip60_1020)">
		<path id="Vector" d="M18.67 0C13.72 0 8.97 1.96 5.47 5.47C1.96 8.97 0 13.72 0 18.67C0 23.62 1.96 28.38 5.47 31.88C8.97 35.38 13.72 37.35 18.67 37.35C23.62 37.35 28.38 35.38 31.88 31.88C35.38 28.38 37.35 23.62 37.35 18.67C37.35 13.72 35.38 8.97 31.88 5.47C28.38 1.96 23.62 0 18.67 0Z" fill="url(#paint_linear_60_1021_0)" fill-opacity="1.000000" fill-rule="nonzero"/>
		<path id="Vector" d="M18.67 0C13.72 0 8.97 1.96 5.47 5.47C1.96 8.97 0 13.72 0 18.67C0 23.62 1.96 28.38 5.47 31.88C8.97 35.38 13.72 37.35 18.67 37.35C23.62 37.35 28.38 35.38 31.88 31.88C35.38 28.38 37.35 23.62 37.35 18.67C37.35 13.72 35.38 8.97 31.88 5.47C28.38 1.96 23.62 0 18.67 0ZM2.5 11.97Q3.77 8.88 6.33 6.33L6.33 6.33Q8.88 3.78 11.96 2.5Q15.05 1.22 18.67 1.22Q22.29 1.22 25.39 2.5Q28.46 3.78 31.01 6.33Q33.57 8.89 34.85 11.98Q36.13 15.06 36.13 18.67Q36.13 22.28 34.85 25.36Q33.57 28.45 31.01 31.01Q28.46 33.56 25.39 34.84Q22.3 36.13 18.67 36.13Q15.05 36.13 11.96 34.84Q8.88 33.56 6.33 31.01Q3.77 28.45 2.49 25.37Q1.22 22.28 1.22 18.67Q1.22 15.06 2.5 11.97Z" fill="#FFFFFF" fill-opacity="1.000000" fill-rule="evenodd"/>
		<path id="Vector" d="M8.45 18.47C13.89 16.1 17.52 14.54 19.34 13.78C24.53 11.63 25.6 11.25 26.31 11.24C26.46 11.24 26.81 11.27 27.03 11.46C27.22 11.61 27.27 11.82 27.3 11.96C27.32 12.11 27.35 12.44 27.33 12.7C27.05 15.65 25.83 22.82 25.21 26.12C24.95 27.52 24.43 27.99 23.93 28.04C22.85 28.14 22.03 27.32 20.98 26.63C19.33 25.56 18.41 24.88 16.81 23.83C14.96 22.62 16.16 21.95 17.21 20.86C17.49 20.57 22.27 16.23 22.36 15.83C22.37 15.78 22.38 15.6 22.27 15.5C22.16 15.41 22 15.44 21.88 15.46C21.72 15.5 19.09 17.24 14 20.67C13.26 21.18 12.59 21.43 11.98 21.42C11.31 21.41 10.03 21.04 9.08 20.73C7.91 20.35 6.98 20.15 7.06 19.51C7.1 19.17 7.56 18.83 8.45 18.47Z" fill="#FFFFFF" fill-opacity="1.000000" fill-rule="nonzero"/>
	</g>
</svg>
