<svg width="35.125000" height="35.399536" viewBox="0 0 35.125 35.3995" fill="none" xmlns="http://www.w3.org/2000/svg" xmlns:xlink="http://www.w3.org/1999/xlink">
	<desc>
			Created with Pixso.
	</desc>
	<defs>
		<clipPath id="clip60_1024">
			<rect id="ватсап" rx="0.000000" width="34.987900" height="35.262318" transform="translate(0.068604 0.068604)" fill="white" fill-opacity="0"/>
		</clipPath>
		<linearGradient x1="1696.033203" y1="3406.718262" x2="1696.033203" y2="0.610840" id="paint_linear_60_1025_0" gradientUnits="userSpaceOnUse">
			<stop stop-color="#1FAF38"/>
			<stop offset="1.000000" stop-color="#60D669"/>
		</linearGradient>
		<linearGradient x1="1756.255371" y1="3528.249023" x2="1756.255371" y2="0.000000" id="paint_linear_60_1026_0" gradientUnits="userSpaceOnUse">
			<stop stop-color="#F9F9F9"/>
			<stop offset="1.000000" stop-color="#FFFFFF"/>
		</linearGradient>
	</defs>
	<rect id="ватсап" rx="0.000000" width="34.987900" height="35.262318" transform="translate(0.068604 0.068604)" fill="#FFFFFF" fill-opacity="0"/>
	<g clip-path="url(#clip60_1024)">
		<path id="Vector" d="M0.74 17.48C0.74 20.46 1.52 23.36 3 25.92L0.6 34.67L9.55 32.32C12.03 33.67 14.8 34.37 17.62 34.37L17.63 34.37C26.93 34.37 34.51 26.8 34.51 17.5C34.51 12.99 32.76 8.75 29.57 5.56C26.38 2.37 22.14 0.61 17.63 0.61C8.32 0.61 0.75 8.18 0.75 17.48L0.74 17.48Z" fill="url(#paint_linear_60_1025_0)" fill-opacity="1.000000" fill-rule="nonzero"/>
		<path id="Vector" d="M0.14 17.48C0.14 20.56 0.95 23.57 2.48 26.22L0 35.28L9.27 32.85C11.82 34.24 14.7 34.97 17.62 34.97L17.63 34.97C27.27 34.97 35.12 27.13 35.12 17.49C35.12 12.82 33.3 8.43 30 5.12C26.7 1.82 22.31 0 17.63 0C7.99 0 0.15 7.84 0.14 17.48ZM5.66 25.76L5.32 25.21C3.86 22.9 3.09 20.22 3.09 17.48C3.1 9.47 9.62 2.95 17.64 2.95C21.52 2.95 25.17 4.46 27.91 7.21C30.66 9.96 32.17 13.61 32.17 17.49C32.16 25.5 25.64 32.02 17.63 32.02L17.63 32.02C15.02 32.02 12.46 31.32 10.23 30L9.7 29.68L4.19 31.12L5.66 25.76Z" fill="url(#paint_linear_60_1026_0)" fill-opacity="1.000000" fill-rule="nonzero"/>
		<path id="Vector" d="M13.26 10.17C12.93 9.44 12.59 9.43 12.28 9.41C12.02 9.4 11.73 9.4 11.44 9.4C11.15 9.4 10.68 9.51 10.28 9.95C9.87 10.39 8.75 11.44 8.75 13.59C8.75 15.74 10.31 17.82 10.53 18.11C10.75 18.41 13.55 22.96 18 24.71C21.69 26.17 22.44 25.88 23.24 25.8C24.04 25.73 25.82 24.75 26.19 23.73C26.55 22.71 26.55 21.83 26.44 21.65C26.33 21.47 26.04 21.36 25.61 21.14C25.17 20.92 23.02 19.86 22.62 19.72C22.22 19.57 21.93 19.5 21.64 19.94C21.35 20.37 20.51 21.36 20.25 21.65C20 21.94 19.74 21.98 19.31 21.76C18.87 21.54 17.46 21.08 15.79 19.59C14.49 18.43 13.62 17 13.36 16.56C13.11 16.13 13.33 15.89 13.55 15.67C13.75 15.48 13.99 15.16 14.21 14.91C14.43 14.65 14.5 14.47 14.64 14.18C14.79 13.89 14.72 13.63 14.61 13.41C14.5 13.19 13.65 11.03 13.26 10.17Z" fill="#FFFFFF" fill-opacity="1.000000" fill-rule="nonzero"/>
	</g>
</svg>
