<svg width="20" height="20" viewBox="0 0 20 20" fill="none" xmlns="http://www.w3.org/2000/svg">
<path d="M14.1665 1.66699H5.83317C3.53198 1.66699 1.6665 3.53247 1.6665 5.83366V14.167C1.6665 16.4682 3.53198 18.3337 5.83317 18.3337H14.1665C16.4677 18.3337 18.3332 16.4682 18.3332 14.167V5.83366C18.3332 3.53247 16.4677 1.66699 14.1665 1.66699Z" stroke="white" stroke-width="1.66667" stroke-linecap="round" stroke-linejoin="round"/>
<path d="M14.5828 5.41699H14.5911M13.3328 9.47533C13.4356 10.1689 13.3171 10.8772 12.9942 11.4995C12.6713 12.1218 12.1604 12.6265 11.5341 12.9417C10.9079 13.2569 10.1981 13.3667 9.50592 13.2553C8.8137 13.1439 8.17423 12.8171 7.67846 12.3213C7.18269 11.8255 6.85587 11.1861 6.74449 10.4938C6.6331 9.80162 6.74282 9.0919 7.05804 8.46564C7.37325 7.83937 7.87792 7.32844 8.50025 7.00553C9.12258 6.68261 9.83089 6.56415 10.5244 6.66699C11.2319 6.7719 11.8868 7.10154 12.3925 7.60725C12.8982 8.11295 13.2279 8.76789 13.3328 9.47533Z" stroke="white" stroke-width="1.66667" stroke-linecap="round" stroke-linejoin="round"/>
</svg>
