<svg width="21" height="21" viewBox="0 0 21 21" fill="none" xmlns="http://www.w3.org/2000/svg">
<path d="M17.1082 2.62217C16.8975 2.6375 16.6907 2.68693 16.4959 2.76852H16.4933C16.3063 2.84267 15.417 3.21674 14.0652 3.78374L9.22073 5.82402C5.74457 7.28746 2.32748 8.72858 2.32748 8.72858L2.36816 8.71283C2.36816 8.71283 2.13257 8.79027 1.88648 8.95892C1.73444 9.05567 1.60362 9.18225 1.50191 9.33102C1.38116 9.5082 1.28404 9.77924 1.32013 10.0595C1.37919 10.5333 1.68632 10.8174 1.90682 10.9743C2.12994 11.1331 2.34257 11.2072 2.34257 11.2072H2.34782L5.55229 12.2868C5.69601 12.7481 6.52879 15.486 6.72894 16.1166C6.84707 16.4933 6.96191 16.7289 7.10563 16.9087C7.17519 17.0006 7.25657 17.0774 7.35435 17.1391C7.40518 17.1686 7.45938 17.192 7.51579 17.2086L7.48298 17.2008C7.49282 17.2034 7.50069 17.2113 7.50791 17.2139C7.53416 17.2211 7.55188 17.2237 7.58535 17.229C8.09263 17.3825 8.50016 17.0675 8.50016 17.0675L8.52313 17.0492L10.4151 15.3265L13.5861 17.7592L13.6583 17.7901C14.3191 18.0801 14.9885 17.9187 15.3422 17.6339C15.6986 17.3471 15.837 16.9803 15.837 16.9803L15.86 16.9212L18.3104 4.3678C18.38 4.05805 18.3977 3.76799 18.3209 3.48646C18.2418 3.20153 18.059 2.95647 17.8084 2.79936C17.598 2.67147 17.3541 2.60974 17.1082 2.62217ZM17.0419 3.96749C17.0393 4.00883 17.0472 4.00424 17.0288 4.08364V4.09086L14.6013 16.5137C14.5908 16.5314 14.5731 16.5701 14.5245 16.6088C14.4734 16.6495 14.4327 16.6751 14.2194 16.5905L10.3409 13.617L7.99813 15.7524L8.49032 12.609L14.8271 6.70274C15.0883 6.45992 15.001 6.40874 15.001 6.40874C15.0194 6.1108 14.6066 6.32146 14.6066 6.32146L6.61607 11.2715L6.61344 11.2584L2.78357 9.96889V9.96627L2.77373 9.9643C2.78044 9.96207 2.78701 9.95944 2.79341 9.95642L2.81441 9.94592L2.83476 9.9387C2.83476 9.9387 6.25448 8.49758 9.73063 7.03414C11.471 6.30111 13.2245 5.56283 14.5731 4.99321C15.3729 4.65655 16.1735 4.32186 16.975 3.98914C17.0288 3.96814 17.0032 3.96749 17.0419 3.96749Z" fill="white"/>
</svg>
