<svg width="21" height="21" viewBox="0 0 21 21" fill="none" xmlns="http://www.w3.org/2000/svg">
<path d="M6.34736 16.1822L6.98086 16.5524C8.04919 17.1754 9.26425 17.5025 10.501 17.5C11.8855 17.5 13.2388 17.0895 14.39 16.3203C15.5411 15.5511 16.4383 14.4579 16.9681 13.1788C17.498 11.8997 17.6366 10.4922 17.3665 9.13437C17.0964 7.7765 16.4297 6.52922 15.4507 5.55025C14.4718 4.57129 13.2245 3.9046 11.8666 3.6345C10.5088 3.36441 9.10129 3.50303 7.8222 4.03284C6.54312 4.56266 5.44987 5.45986 4.6807 6.61101C3.91153 7.76215 3.50099 9.11553 3.50099 10.5C3.49844 11.7371 3.82585 12.9526 4.44949 14.021L4.81874 14.6545L4.24736 16.7554L6.34736 16.1822ZM1.75449 19.25L2.93749 14.903C2.15795 13.5668 1.74841 12.047 1.75099 10.5C1.75099 5.66738 5.66836 1.75 10.501 1.75C15.3336 1.75 19.251 5.66738 19.251 10.5C19.251 15.3326 15.3336 19.25 10.501 19.25C8.95467 19.2525 7.43556 18.8433 6.09974 18.0644L1.75449 19.25ZM7.34311 6.3945C7.46036 6.38575 7.57849 6.38575 7.69574 6.391C7.74299 6.3945 7.79024 6.39975 7.83749 6.405C7.97661 6.42075 8.12974 6.50562 8.18136 6.62287C8.44211 7.21437 8.69586 7.81025 8.94086 8.40788C8.99511 8.54087 8.96274 8.7115 8.85949 8.87775C8.80699 8.96263 8.72474 9.08162 8.62936 9.20325C8.53049 9.33012 8.31786 9.56287 8.31786 9.56287C8.31786 9.56287 8.23124 9.66613 8.26449 9.79475C8.27674 9.84375 8.31699 9.91463 8.35374 9.97412L8.40536 10.0573C8.62936 10.4309 8.93036 10.8097 9.29786 11.1667C9.40286 11.2682 9.50524 11.3724 9.61549 11.4695C10.025 11.8309 10.4887 12.1257 10.9892 12.3445L10.9936 12.3462C11.068 12.3786 11.1056 12.3961 11.2141 12.4425C11.2684 12.4653 11.3244 12.4845 11.3812 12.5002C11.44 12.5152 11.5019 12.5124 11.5591 12.4921C11.6162 12.4719 11.6661 12.4351 11.7024 12.3865C12.3359 11.6191 12.3936 11.5693 12.3989 11.5693V11.571C12.4429 11.53 12.4952 11.4988 12.5522 11.4796C12.6093 11.4605 12.6697 11.4537 12.7296 11.4599C12.7821 11.4634 12.8355 11.473 12.8845 11.4949C13.3491 11.7075 14.1095 12.0391 14.1095 12.0391L14.6187 12.2675C14.7045 12.3086 14.7824 12.4057 14.785 12.4994C14.7885 12.558 14.7937 12.6525 14.7736 12.8258C14.7456 13.0524 14.6774 13.3245 14.6091 13.4671C14.5623 13.5644 14.5003 13.6536 14.4254 13.7314C14.3371 13.8241 14.2404 13.9084 14.1366 13.9834C14.0649 14.0376 14.0272 14.0621 14.0272 14.0621C13.9184 14.1311 13.8066 14.1954 13.6921 14.2546C13.4668 14.3743 13.218 14.443 12.9632 14.4559C12.8014 14.4646 12.6395 14.4769 12.4767 14.4681C12.4697 14.4681 11.9797 14.392 11.9797 14.392C10.7357 14.0648 9.5852 13.4518 8.61974 12.6018C8.42199 12.4276 8.23824 12.2404 8.05099 12.054C7.27399 11.2796 6.68511 10.444 6.32724 9.65475C6.14498 9.26756 6.04659 8.84624 6.03849 8.41838C6.0352 7.88703 6.20916 7.36975 6.53286 6.94837C6.59674 6.86612 6.65711 6.78038 6.76124 6.6815C6.87149 6.5765 6.94236 6.5205 7.01849 6.482C7.1197 6.43128 7.23012 6.40152 7.34311 6.3945Z" fill="white"/>
</svg>
